<svg width="27" height="27" viewBox="0 0 27 27" fill="none" xmlns="http://www.w3.org/2000/svg">
<path d="M4.64551 22.3518H8.51269V10.7335H4.64551V22.3518ZM8.76381 7.15095C8.75265 6.57059 8.55176 6.09068 8.16113 5.71122C7.77051 5.33175 7.25153 5.14202 6.60421 5.14202C5.95689 5.14202 5.42955 5.33175 5.02218 5.71122C4.61481 6.09068 4.41113 6.57059 4.41113 7.15095C4.41113 7.72015 4.60923 8.19727 5.00544 8.58231C5.40164 8.96736 5.91783 9.15988 6.55399 9.15988H6.57073C7.22921 9.15988 7.75934 8.96736 8.16113 8.58231C8.56292 8.19727 8.76381 7.72015 8.76381 7.15095ZM18.5573 22.3518H22.4245V15.6889C22.4245 13.9701 22.0172 12.6699 21.2024 11.7882C20.3877 10.9065 19.3107 10.4657 17.9714 10.4657C16.4535 10.4657 15.2872 11.1186 14.4725 12.4244H14.506V10.7335H10.6388C10.6723 11.4701 10.6723 15.3429 10.6388 22.3518H14.506V15.8563C14.506 15.4322 14.5451 15.1197 14.6232 14.9188C14.7906 14.5282 15.0417 14.1961 15.3765 13.9227C15.7114 13.6493 16.1243 13.5126 16.6154 13.5126C17.91 13.5126 18.5573 14.3887 18.5573 16.1409V22.3518ZM26.3922 5.64425V21.7157C26.3922 23.0438 25.9206 24.1794 24.9775 25.1225C24.0345 26.0656 22.8989 26.5371 21.5707 26.5371H5.4993C4.17118 26.5371 3.03557 26.0656 2.09249 25.1225C1.14941 24.1794 0.677872 23.0438 0.677872 21.7157V5.64425C0.677872 4.31613 1.14941 3.18052 2.09249 2.23745C3.03557 1.29436 4.17118 0.822824 5.4993 0.822824H21.5707C22.8989 0.822824 24.0345 1.29436 24.9775 2.23745C25.9206 3.18052 26.3922 4.31613 26.3922 5.64425Z" fill="black"/>
</svg>
