<svg width="57" height="11" viewBox="0 0 57 11" fill="none" xmlns="http://www.w3.org/2000/svg">
<path d="M5.19777 10.0923C4.32708 10.0923 3.52674 9.89006 2.79677 9.4855C2.07559 9.08094 1.49953 8.51806 1.06858 7.79688C0.646423 7.06691 0.435346 6.24899 0.435346 5.34312C0.435346 4.43724 0.646423 3.62372 1.06858 2.90254C1.49953 2.18136 2.07559 1.61849 2.79677 1.21393C3.52674 0.809361 4.32708 0.607079 5.19777 0.607079C6.06846 0.607079 6.8644 0.809361 7.58558 1.21393C8.31555 1.61849 8.88722 2.18136 9.30058 2.90254C9.72273 3.62372 9.93381 4.43724 9.93381 5.34312C9.93381 6.24899 9.72273 7.06691 9.30058 7.79688C8.87842 8.51806 8.30675 9.08094 7.58558 9.4855C6.8644 9.89006 6.06846 10.0923 5.19777 10.0923ZM5.19777 8.03435C5.93654 8.03435 6.52579 7.78809 6.96554 7.29558C7.41408 6.80306 7.63835 6.15224 7.63835 5.34312C7.63835 4.52519 7.41408 3.87437 6.96554 3.39065C6.52579 2.89814 5.93654 2.65189 5.19777 2.65189C4.4502 2.65189 3.85215 2.89374 3.40361 3.37746C2.96387 3.86118 2.744 4.5164 2.744 5.34312C2.744 6.16104 2.96387 6.81626 3.40361 7.30877C3.85215 7.79249 4.4502 8.03435 5.19777 8.03435ZM15.9117 10L13.9856 6.50404H13.4447V10H11.1888V0.739002H14.975C15.705 0.739002 16.325 0.866527 16.8351 1.12158C17.354 1.37663 17.741 1.72842 17.9961 2.17696C18.2511 2.61671 18.3786 3.10922 18.3786 3.6545C18.3786 4.27014 18.2027 4.81982 17.8509 5.30354C17.5079 5.78726 16.9978 6.13026 16.3206 6.33254L18.4578 10H15.9117ZM13.4447 4.90777H14.8431C15.2565 4.90777 15.5643 4.80663 15.7666 4.60435C15.9776 4.40207 16.0832 4.11623 16.0832 3.74685C16.0832 3.39505 15.9776 3.11801 15.7666 2.91573C15.5643 2.71345 15.2565 2.61231 14.8431 2.61231H13.4447V4.90777ZM25.9424 3.66769C25.7753 3.35987 25.5334 3.12681 25.2168 2.9685C24.909 2.8014 24.544 2.71785 24.1218 2.71785C23.3918 2.71785 22.807 2.95971 22.3672 3.44342C21.9275 3.91835 21.7076 4.55598 21.7076 5.35631C21.7076 6.20941 21.9363 6.87782 22.3936 7.36154C22.8598 7.83646 23.4974 8.07392 24.3065 8.07392C24.8606 8.07392 25.3267 7.93321 25.7049 7.65177C26.0919 7.37033 26.3733 6.96577 26.5492 6.43808H23.6865V4.77585H28.594V6.87342C28.4269 7.4363 28.1411 7.95959 27.7365 8.44331C27.3407 8.92703 26.835 9.3184 26.2194 9.61742C25.6038 9.91645 24.909 10.066 24.135 10.066C23.2203 10.066 22.4024 9.86808 21.6812 9.47231C20.9689 9.06774 20.4104 8.50927 20.0058 7.79688C19.6101 7.0845 19.4122 6.27098 19.4122 5.35631C19.4122 4.44164 19.6101 3.62812 20.0058 2.91573C20.4104 2.19455 20.9689 1.63608 21.6812 1.24031C22.3936 0.835745 23.2072 0.633463 24.1218 0.633463C25.23 0.633463 26.1622 0.901707 26.9186 1.43819C27.6837 1.97468 28.1894 2.71785 28.4357 3.66769H25.9424ZM32.4941 3.08723C32.5293 2.14618 32.8371 1.4206 33.4176 0.910502C33.998 0.400399 34.7852 0.145348 35.779 0.145348C36.4386 0.145348 37.0015 0.259681 37.4676 0.488348C37.9425 0.717014 38.2987 1.02923 38.5362 1.425C38.7824 1.82077 38.9056 2.26491 38.9056 2.75742C38.9056 3.33789 38.7604 3.81281 38.4702 4.18219C38.18 4.54278 37.8414 4.78904 37.4544 4.92096V4.97373C37.9557 5.14083 38.3515 5.41787 38.6417 5.80485C38.9319 6.19182 39.0771 6.68873 39.0771 7.29558C39.0771 7.84086 38.9495 8.32458 38.6945 8.74673C38.4482 9.16009 38.0832 9.4855 37.5995 9.72296C37.1246 9.96042 36.5573 10.0792 35.8977 10.0792C34.8423 10.0792 33.998 9.81971 33.3648 9.30081C32.7403 8.78191 32.4105 7.99917 32.3754 6.95258H34.5653C34.5741 7.33955 34.684 7.64737 34.8951 7.87604C35.1062 8.09591 35.414 8.20585 35.8186 8.20585C36.1616 8.20585 36.4254 8.1091 36.6101 7.91562C36.8036 7.71333 36.9003 7.44949 36.9003 7.12408C36.9003 6.70192 36.764 6.3985 36.4914 6.21381C36.2275 6.02032 35.801 5.92358 35.2117 5.92358H34.7896V4.08985H35.2117C35.6602 4.08985 36.0208 4.01509 36.2935 3.86558C36.5749 3.70727 36.7156 3.43023 36.7156 3.03446C36.7156 2.71785 36.6277 2.47159 36.4518 2.29569C36.2759 2.1198 36.034 2.03185 35.7262 2.03185C35.392 2.03185 35.1413 2.13299 34.9742 2.33527C34.8159 2.53755 34.7236 2.78821 34.6972 3.08723H32.4941ZM45.1649 2.9685C45.0945 2.64309 44.9714 2.40123 44.7955 2.24292C44.6196 2.07582 44.369 1.99227 44.0435 1.99227C43.5422 1.99227 43.1816 2.21214 42.9618 2.65189C42.7419 3.08283 42.6276 3.76883 42.6188 4.70989C42.8123 4.40207 43.0893 4.16021 43.4499 3.98431C43.8193 3.80841 44.2238 3.72046 44.6636 3.72046C45.5255 3.72046 46.2159 3.9931 46.7348 4.53839C47.2625 5.08367 47.5263 5.84442 47.5263 6.82065C47.5263 7.46268 47.3944 8.02555 47.1305 8.50927C46.8755 8.99299 46.4973 9.37117 45.996 9.64381C45.5035 9.91645 44.9186 10.0528 44.2414 10.0528C42.887 10.0528 41.946 9.63062 41.4183 8.78631C40.8906 7.93321 40.6267 6.71072 40.6267 5.11885C40.6267 3.44782 40.9038 2.20775 41.4578 1.39862C42.0207 0.580694 42.9178 0.171732 44.1491 0.171732C44.8087 0.171732 45.3628 0.303655 45.8113 0.567502C46.2686 0.822553 46.6116 1.16116 46.8403 1.58331C47.0778 2.00546 47.2185 2.46719 47.2625 2.9685H45.1649ZM44.1227 5.50142C43.7445 5.50142 43.4279 5.61576 43.1728 5.84442C42.9266 6.0643 42.8035 6.38091 42.8035 6.79427C42.8035 7.21642 42.9178 7.54623 43.1465 7.78369C43.3839 8.02115 43.7181 8.13989 44.1491 8.13989C44.5361 8.13989 44.8395 8.02555 45.0593 7.79688C45.288 7.55942 45.4023 7.23841 45.4023 6.83385C45.4023 6.42049 45.2924 6.09508 45.0725 5.85762C44.8527 5.62015 44.5361 5.50142 44.1227 5.50142ZM48.8023 5.05289C48.8023 3.54017 49.0925 2.34846 49.6729 1.47777C50.2622 0.607078 51.2076 0.171732 52.5093 0.171732C53.8109 0.171732 54.752 0.607078 55.3324 1.47777C55.9217 2.34846 56.2163 3.54017 56.2163 5.05289C56.2163 6.58319 55.9217 7.78369 55.3324 8.65438C54.752 9.52508 53.8109 9.96042 52.5093 9.96042C51.2076 9.96042 50.2622 9.52508 49.6729 8.65438C49.0925 7.78369 48.8023 6.58319 48.8023 5.05289ZM54 5.05289C54 4.1646 53.9033 3.483 53.7098 3.00808C53.5163 2.52436 53.1161 2.2825 52.5093 2.2825C51.9024 2.2825 51.5023 2.52436 51.3088 3.00808C51.1153 3.483 51.0186 4.1646 51.0186 5.05289C51.0186 5.65094 51.0537 6.14785 51.1241 6.54362C51.1945 6.93059 51.3352 7.24721 51.5463 7.49346C51.7661 7.73092 52.0871 7.84965 52.5093 7.84965C52.9314 7.84965 53.2481 7.73092 53.4591 7.49346C53.679 7.24721 53.8241 6.93059 53.8945 6.54362C53.9648 6.14785 54 5.65094 54 5.05289Z" fill="#044B69"/>
</svg>
