<svg width="73" height="78" viewBox="0 0 73 78" fill="none" xmlns="http://www.w3.org/2000/svg">
<path d="M70.3273 2.19647C69.2486 2.19647 67.9901 2.19647 66.9114 2.19647C59.5404 2.58207 52.5289 4.3173 45.877 7.78775C37.7868 11.8366 30.9551 17.6207 25.5616 25.3328C21.7862 30.5385 19.0895 36.3226 17.1119 42.4923C16.9321 42.8779 17.1119 43.0707 17.2917 43.2635C18.9097 44.9987 20.5277 46.7339 22.1458 48.4692C22.3256 48.662 22.5053 49.0476 22.5053 49.4332C22.5053 49.8188 22.3256 50.2044 21.966 50.3972C21.6064 50.59 21.0671 50.59 20.8873 50.2044C19.9884 49.2404 19.2693 48.4692 18.3704 47.5051C17.2917 46.3483 16.3928 45.1915 15.3141 44.2275C14.9545 43.8419 14.7747 43.2635 14.9545 42.6851C17.2917 35.1658 20.7075 28.2248 25.5616 22.0552C30.4157 15.6927 36.3485 10.6798 43.0005 7.01654C49.113 3.54609 55.765 1.42526 62.5967 0.461243C65.4732 0.0756375 68.3497 -0.117165 71.2262 0.0756375C72.1251 0.0756375 72.3049 0.461243 72.4847 1.42526C72.8442 13.9574 69.9677 25.5256 63.6754 36.3226C57.383 46.9267 48.7535 54.8316 37.9666 59.8445C36.3485 60.6157 34.5507 61.1941 32.7529 61.9654C32.2136 62.1582 31.854 62.1582 31.4944 61.5797C29.6966 59.6517 27.719 57.5309 25.9212 55.6029C25.5616 55.2173 25.3818 54.6388 25.7414 54.0604C26.101 53.482 26.8201 53.482 27.3594 54.0604C28.9775 55.7957 30.5955 57.5309 32.2136 59.2661C32.5731 59.6517 32.7529 59.6517 33.1125 59.4589C41.0229 56.5669 48.0344 51.9396 53.9672 45.7699C60.9786 38.4434 65.653 29.7673 68.3497 19.9343C69.7879 14.5359 70.5071 8.94457 70.5071 3.16048C70.5071 2.77488 70.3273 2.58207 70.3273 2.19647Z" fill="#044B69"/>
<path d="M60.4392 24.7544C60.4392 31.3097 55.5851 36.5154 49.4726 36.5154C43.36 36.5154 38.5059 31.3097 38.5059 24.7544C38.5059 18.3919 43.36 12.9934 49.2928 12.9934C55.5851 12.9934 60.4392 18.1991 60.4392 24.7544ZM58.2819 24.9472C58.2819 19.5487 54.3267 15.307 49.2928 15.307C44.2589 15.307 40.3037 19.5487 40.3037 24.9472C40.3037 30.3457 44.2589 34.5873 49.2928 34.5873C54.3267 34.3945 58.2819 30.1529 58.2819 24.9472Z" fill="#044B69"/>
<path d="M32.9328 74.1118C34.1912 73.3406 35.4497 72.3766 36.5284 71.4126C40.124 67.9421 42.1016 63.7005 43.0005 58.6876C43.1803 57.9164 43.5399 57.5308 44.0792 57.5308C44.7984 57.5308 45.1579 58.1092 45.1579 58.8804C44.9781 59.8444 44.7984 61.0012 44.4388 61.9652C42.4612 68.5205 38.8656 73.3406 33.2923 76.6182C32.0339 77.3895 31.4945 77.0038 31.3147 75.6542C30.5956 71.6054 29.8765 67.3637 29.1573 63.3148C29.1573 62.9292 29.1573 62.5436 29.1573 62.3508C29.3371 61.9652 29.6967 61.7724 30.236 61.7724C30.5956 61.7724 30.9552 62.158 31.1349 62.5436C31.3147 63.7005 31.4945 64.8573 31.8541 66.2069C32.0339 68.9061 32.5732 71.4126 32.9328 74.1118Z" fill="#044B69"/>
<path d="M3.26869 42.2996C4.34738 42.4924 5.42608 42.6852 6.32498 42.878C8.84193 43.4564 11.3589 43.842 13.696 44.4204C13.8758 44.4204 13.8758 44.4204 14.0556 44.4204C14.5949 44.6132 14.9545 45.1916 14.7747 45.77C14.5949 46.3485 14.2354 46.7341 13.5163 46.5413C12.078 46.1557 10.46 45.9628 9.02171 45.5772C6.68455 44.9988 4.34738 44.6132 1.83044 44.0348C1.65066 44.0348 1.65066 44.0348 1.47088 44.0348C0.571967 43.842 0.392185 43.2636 0.751748 42.2996C1.83044 40.1788 3.08891 38.0579 4.70695 36.3227C8.1228 32.4667 12.2578 30.3458 16.9321 29.189C17.1119 29.189 17.2917 29.189 17.2917 28.9962C17.831 28.8034 18.3704 29.189 18.5501 29.7674C18.7299 30.3458 18.3704 30.9242 17.6512 31.117C16.5725 31.5026 15.3141 31.6954 14.2354 32.081C9.56106 33.8163 5.96542 36.9011 3.26869 41.3356C3.44848 41.914 3.44848 42.1068 3.26869 42.2996Z" fill="#044B69"/>
<path d="M16.0331 59.459C16.2129 59.2662 16.3927 58.8806 16.5725 58.6878C19.9883 55.0246 23.2244 51.5541 26.6403 47.8908C27.8987 46.5412 28.9774 45.3844 30.2359 44.0348C30.7752 43.4564 31.3146 43.4564 31.8539 43.842C32.2135 44.2276 32.2135 44.9988 31.6742 45.5772C27.719 49.8189 23.7638 54.2533 19.6288 58.495C19.0894 59.0734 18.5501 59.8446 17.831 60.423C17.4714 60.8086 17.1118 60.8086 16.7523 60.6158C16.2129 60.423 16.0331 60.0374 16.0331 59.459Z" fill="#044B69"/>
<path d="M11.3589 64.4719C11.7185 64.6647 12.078 64.8575 12.2578 65.2431C12.4376 65.6287 12.2578 66.0143 12.078 66.4C11.8983 66.5928 11.5387 66.9784 11.3589 67.364C9.20153 69.6776 7.04415 72.184 4.70699 74.4977C4.34742 74.6905 4.16764 74.8833 3.80808 74.8833C3.44851 74.8833 3.08895 74.6905 2.90917 74.3049C2.72939 73.7265 2.72939 73.3408 3.08895 72.9552C4.5272 71.4128 5.96546 69.8704 7.40371 68.328C8.4824 67.1712 9.38131 66.2071 10.46 65.0503C10.8196 64.8575 10.9993 64.6647 11.3589 64.4719Z" fill="#044B69"/>
<path d="M9.7408 56.5669C10.6397 56.5669 11.1791 57.5309 10.8195 58.1093C10.6397 58.3021 10.6397 58.4949 10.4599 58.6877C8.12277 61.1942 5.7856 63.7006 3.44844 66.207L3.26866 66.3998C2.72931 66.7854 2.18997 66.9782 1.8304 66.3998C1.47084 66.0142 1.47084 65.243 1.8304 64.8574C3.62822 62.9294 5.42604 61.0014 7.22386 59.0733C7.94298 58.3021 8.48233 57.7237 9.20146 57.1453C9.38124 56.7597 9.7408 56.5669 9.7408 56.5669Z" fill="#044B69"/>
<path d="M19.8086 67.3638C19.8086 67.5566 19.6288 67.7494 19.449 68.135C16.9321 70.8343 14.5949 73.3407 12.078 76.0399C11.5386 76.6183 10.9993 76.6183 10.4599 76.0399C10.1004 75.6543 10.1004 74.8831 10.6397 74.4975C13.1567 71.7983 15.4938 69.2918 18.0108 66.5926C18.3703 66.207 18.7299 66.0142 19.2693 66.207C19.6288 66.3998 19.8086 66.5926 19.8086 67.3638Z" fill="#044B69"/>
</svg>
