<svg width="60" height="72" viewBox="0 0 60 72" fill="none" xmlns="http://www.w3.org/2000/svg">
<path d="M24.1573 49.1066C23.4404 49.2858 22.9028 49.465 22.3651 49.8235C21.6482 48.7482 21.1106 47.4936 20.3937 46.5975C19.1391 44.8053 17.7054 43.1923 16.4508 41.4001C14.4794 38.7117 12.8664 36.0234 12.1495 32.6182C10.5365 24.1948 15.1962 15.9506 23.2612 12.7246C33.8353 8.42326 46.0224 15.5921 47.6354 26.8831C48.3523 32.0805 46.7393 36.3819 43.8717 40.504C42.6172 42.2962 41.0042 44.0884 39.7496 46.0598C38.8535 47.3144 38.3159 48.5689 37.4198 49.8235C37.0613 50.3612 36.7029 50.8988 36.1652 51.078C32.0431 52.691 27.921 54.1248 23.7989 55.5586C23.2612 55.7378 22.9028 55.5586 22.7236 55.2001C22.5443 54.6625 22.5444 54.1248 23.082 53.9456C23.4405 53.7664 23.7989 53.5871 24.1573 53.5871C27.7417 52.3326 31.3262 51.078 34.9106 49.6443C35.2691 49.465 35.6275 49.1066 35.8067 48.7482C37.2405 46.0598 39.0328 43.9092 40.825 41.4001C42.6172 39.0702 44.2302 36.9195 44.947 34.052C46.7393 28.3169 45.4847 23.2987 41.5418 18.9973C37.0613 13.9791 31.3262 12.3661 24.8742 14.3376C18.4223 16.309 14.8378 20.7896 13.5832 27.4208C12.6871 32.0805 14.3001 36.0234 16.9884 39.6078C18.6014 41.7585 20.2145 43.9092 21.8275 46.0598C22.9028 46.7767 23.4404 47.852 24.1573 49.1066Z" fill="#06265E"/>
<path d="M23.2612 66.8496C23.082 66.6704 22.7236 66.4912 22.7236 66.1327C22.7236 65.7743 22.9028 65.4159 23.0821 65.0574C23.0821 64.8782 23.4405 64.8782 23.6197 64.8782C27.5626 63.4444 31.6847 62.0106 35.6276 60.5769C36.5237 60.2184 36.8821 60.3976 37.0613 60.9353C37.2406 61.473 36.8821 62.0106 36.1652 62.3691C32.0431 63.8029 28.1003 65.2366 23.9782 66.8496C23.799 66.6704 23.6197 66.6704 23.2612 66.8496Z" fill="#06265E"/>
<path d="M23.2612 60.9356C23.082 60.7563 22.7236 60.5771 22.7236 60.2187C22.7236 59.8602 22.9028 59.5018 23.0821 59.1433C23.0821 58.9641 23.4405 58.9641 23.6197 58.9641C27.5626 57.5304 31.6847 56.0966 35.6276 54.6628C36.5237 54.3044 36.8821 54.4836 37.0613 55.0212C37.2406 55.5589 37.0613 56.0966 36.1652 56.455C32.0431 57.8888 28.1003 59.5018 23.9782 60.9356C23.799 60.9356 23.6197 60.9356 23.2612 60.9356Z" fill="#06265E"/>
<path d="M36.1652 65.9536C34.9107 70.2549 27.921 72.764 23.6197 70.4342C27.7418 69.0004 31.8639 67.3874 36.1652 65.9536Z" fill="#06265E"/>
<path d="M30.7886 3.22599C30.7886 3.94288 30.7886 4.65977 30.7886 5.37665C30.7886 5.91432 30.4302 6.27276 29.8925 6.27276C29.3548 6.27276 28.9964 5.91432 28.9964 5.37665C28.9964 3.94288 28.9964 2.5091 28.9964 0.896109C28.9964 0.358443 29.3548 0 29.8925 0C30.4302 0 30.7886 0.358443 30.7886 0.896109C30.7886 1.613 30.7886 2.5091 30.7886 3.22599Z" fill="#06265E"/>
<path d="M3.72603 28.3171C4.44292 28.3171 5.15983 28.3171 5.87671 28.3171C6.5936 28.3171 6.95205 28.6756 6.95205 29.2132C6.95205 29.7509 6.5936 30.1094 5.87671 30.1094C4.44294 30.1094 3.00918 30.1094 1.5754 30.1094C0.858515 30.1094 0.500061 29.7509 0.500061 29.2132C0.500061 28.6756 0.858515 28.3171 1.5754 28.3171C2.29229 28.3171 3.00914 28.3171 3.72603 28.3171Z" fill="#06265E"/>
<path d="M56.0588 30.2886C55.3419 30.2886 54.625 30.2886 53.9081 30.2886C53.3704 30.2886 53.012 29.9301 53.012 29.3924C53.012 28.8548 53.3704 28.4963 53.9081 28.4963C55.3418 28.4963 56.9548 28.4963 58.3886 28.4963C58.9263 28.4963 59.2847 28.8548 59.2847 29.3924C59.2847 29.9301 58.9263 30.2886 58.3886 30.2886C57.4925 30.2886 56.7756 30.2886 56.0588 30.2886Z" fill="#06265E"/>
<path d="M9.46122 7.88574C9.81966 8.06496 9.99887 8.24419 10.1781 8.42341C11.2534 9.49874 12.1496 10.3948 13.2249 11.4702C13.7626 12.0078 13.7626 12.3663 13.2249 12.904C12.8664 13.2624 12.3287 13.2624 11.7911 12.904C10.7157 11.8286 9.64045 10.9325 8.74434 9.85718C8.56512 9.67796 8.38589 9.14029 8.56511 8.78185C8.74433 8.24419 9.282 8.06496 9.46122 7.88574Z" fill="#06265E"/>
<path d="M46.9186 45.3433C47.277 45.5225 47.4562 45.7017 47.6354 45.8809C48.7108 46.777 49.6069 47.8524 50.6822 48.7485C51.2199 49.2861 51.2199 49.8238 50.8615 50.1823C50.503 50.5407 49.9653 50.5407 49.4276 50.003C48.3523 48.9277 47.4562 48.0316 46.3809 46.9563C46.2017 46.777 46.0225 46.2394 46.2017 45.8809C46.2017 45.7017 46.5601 45.5225 46.9186 45.3433Z" fill="#06265E"/>
<path d="M51.2198 8.96107C51.0406 9.31951 50.8614 9.49873 50.6822 9.67795C49.6068 10.7533 48.7107 11.6494 47.6354 12.7247C47.2769 13.0832 46.7393 13.2624 46.2016 12.7247C45.8432 12.3663 45.8432 11.8286 46.2016 11.291C47.277 10.2156 48.173 9.14029 49.2484 8.24418C49.4276 8.06496 49.9653 7.88574 50.3237 8.06496C50.6822 8.24418 50.8614 8.78185 51.2198 8.96107Z" fill="#06265E"/>
<path d="M9.46114 50.5405C9.28192 50.3612 8.92349 50.182 8.74427 49.8236C8.56504 49.6444 8.74427 49.1067 8.74427 48.9275C9.8196 47.8521 10.8949 46.5976 12.1495 45.5223C12.5079 45.1638 13.0455 45.1638 13.404 45.5223C13.7624 45.8807 13.7624 46.4184 13.404 46.7768C12.3287 47.8521 11.2533 48.9275 10.178 50.0028C9.9988 50.3612 9.81959 50.5405 9.46114 50.5405Z" fill="#06265E"/>
</svg>
