<svg width="132" height="44" viewBox="0 0 132 44" fill="none" xmlns="http://www.w3.org/2000/svg">
<rect width="132" height="44" rx="5" fill="url(#paint0_linear_216_1627)" fill-opacity="0.08"/>
<g clip-path="url(#clip0_216_1627)">
<path d="M31.9804 17.8801C31.9335 16.8174 31.7617 16.0868 31.5155 15.4537C31.2616 14.7818 30.8709 14.1801 30.359 13.68C29.8589 13.1721 29.2533 12.7774 28.5891 12.5274C27.9524 12.2813 27.2256 12.1094 26.1629 12.0626C25.0923 12.0118 24.7524 12 22.0371 12C19.3217 12 18.9818 12.0118 17.9152 12.0586C16.8525 12.1055 16.1219 12.2775 15.489 12.5235C14.8169 12.7774 14.2153 13.1681 13.7151 13.68C13.2072 14.1801 12.8127 14.7857 12.5626 15.4499C12.3164 16.0868 12.1446 16.8134 12.0977 17.8761C12.0469 18.9467 12.0351 19.2866 12.0351 22.002C12.0351 24.7173 12.0469 25.0572 12.0937 26.1239C12.1406 27.1865 12.3126 27.9171 12.5588 28.5502C12.8127 29.2221 13.2072 29.8238 13.7151 30.3239C14.2153 30.8318 14.8209 31.2265 15.485 31.4765C16.1219 31.7226 16.8485 31.8945 17.9114 31.9413C18.9778 31.9883 19.3179 31.9999 22.0332 31.9999C24.7486 31.9999 25.0885 31.9883 26.1551 31.9413C27.2178 31.8945 27.9484 31.7226 28.5813 31.4765C29.9254 30.9568 30.9881 29.8941 31.5077 28.5502C31.7538 27.9133 31.9258 27.1865 31.9726 26.1239C32.0195 25.0572 32.0312 24.7173 32.0312 22.002C32.0312 19.2866 32.0273 18.9467 31.9804 17.8801ZM30.1794 26.0457C30.1363 27.0225 29.9723 27.5499 29.8355 27.9015C29.4994 28.7728 28.8079 29.4643 27.9366 29.8004C27.585 29.9372 27.0538 30.1012 26.0808 30.1441C25.0259 30.1911 24.7095 30.2027 22.041 30.2027C19.3725 30.2027 19.0522 30.1911 18.0011 30.1441C17.0243 30.1012 16.4969 29.9372 16.1453 29.8004C15.7117 29.6402 15.317 29.3862 14.9967 29.0541C14.6646 28.7298 14.4106 28.3391 14.2504 27.9055C14.1136 27.5539 13.9496 27.0225 13.9067 26.0497C13.8597 24.9948 13.8481 24.6783 13.8481 22.0097C13.8481 19.3412 13.8597 19.0209 13.9067 17.9699C13.9496 16.9932 14.1136 16.4657 14.2504 16.1141C14.4106 15.6804 14.6646 15.2859 15.0006 14.9654C15.3248 14.6333 15.7155 14.3793 16.1492 14.2192C16.5009 14.0825 17.0323 13.9184 18.0051 13.8754C19.06 13.8285 19.3765 13.8168 22.0448 13.8168C24.7173 13.8168 25.0337 13.8285 26.0848 13.8754C27.0615 13.9184 27.589 14.0825 27.9406 14.2192C28.3742 14.3793 28.7689 14.6333 29.0892 14.9654C29.4213 15.2897 29.6753 15.6804 29.8355 16.1141C29.9723 16.4657 30.1363 16.997 30.1794 17.9699C30.2262 19.0248 30.238 19.3412 30.238 22.0097C30.238 24.6783 30.2262 24.9908 30.1794 26.0457Z" fill="url(#paint1_linear_216_1627)"/>
<path d="M22.0371 16.8643C19.2007 16.8643 16.8994 19.1654 16.8994 22.002C16.8994 24.8385 19.2007 27.1397 22.0371 27.1397C24.8737 27.1397 27.1748 24.8385 27.1748 22.002C27.1748 19.1654 24.8737 16.8643 22.0371 16.8643ZM22.0371 25.3347C20.197 25.3347 18.7044 23.8422 18.7044 22.002C18.7044 20.1617 20.197 18.6693 22.0371 18.6693C23.8774 18.6693 25.3698 20.1617 25.3698 22.002C25.3698 23.8422 23.8774 25.3347 22.0371 25.3347Z" fill="url(#paint2_linear_216_1627)"/>
<path d="M28.5775 16.6613C28.5775 17.3237 28.0404 17.8608 27.3779 17.8608C26.7156 17.8608 26.1785 17.3237 26.1785 16.6613C26.1785 15.9988 26.7156 15.4619 27.3779 15.4619C28.0404 15.4619 28.5775 15.9988 28.5775 16.6613Z" fill="url(#paint3_linear_216_1627)"/>
</g>
<line opacity="0.15" x1="42.5" y1="12" x2="42.5" y2="32" stroke="#061C3D"/>
<path d="M54.6548 16.8182V27H53.1186V16.8182H54.6548ZM58.2592 22.4659V27H56.7727V19.3636H58.1996V20.6065H58.294C58.4697 20.2022 58.7448 19.8774 59.1193 19.6321C59.4972 19.3868 59.9728 19.2642 60.5462 19.2642C61.0665 19.2642 61.5223 19.3736 61.9134 19.5923C62.3045 19.8078 62.6077 20.1293 62.8232 20.5568C63.0386 20.9844 63.1463 21.513 63.1463 22.1428V27H61.6598V22.3217C61.6598 21.7682 61.5156 21.3357 61.2273 21.0241C60.9389 20.7093 60.5429 20.5518 60.0391 20.5518C59.6944 20.5518 59.3878 20.6264 59.1193 20.7756C58.8542 20.9247 58.6437 21.1435 58.4879 21.4318C58.3355 21.7169 58.2592 22.0616 58.2592 22.4659ZM70.8622 21.228L69.5149 21.4666C69.4586 21.2943 69.3691 21.1302 69.2464 20.9744C69.1271 20.8187 68.9647 20.6911 68.7592 20.5916C68.5537 20.4922 68.2969 20.4425 67.9886 20.4425C67.5677 20.4425 67.2164 20.5369 66.9347 20.7259C66.6529 20.9115 66.5121 21.1518 66.5121 21.4467C66.5121 21.7019 66.6065 21.9074 66.7955 22.0632C66.9844 22.219 67.2893 22.3466 67.7102 22.446L68.9233 22.7244C69.6259 22.8868 70.1496 23.1371 70.4943 23.4751C70.839 23.8132 71.0114 24.2524 71.0114 24.7926C71.0114 25.25 70.8788 25.6577 70.6136 26.0156C70.3518 26.3703 69.9856 26.6487 69.5149 26.8509C69.0476 27.053 68.5057 27.1541 67.8892 27.1541C67.0341 27.1541 66.3364 26.9718 65.7962 26.6072C65.2559 26.2393 64.9245 25.7173 64.8018 25.0412L66.2386 24.8224C66.3281 25.197 66.5121 25.4804 66.7905 25.6726C67.0689 25.8615 67.4318 25.956 67.8793 25.956C68.3665 25.956 68.7559 25.8549 69.0476 25.6527C69.3393 25.4472 69.4851 25.197 69.4851 24.902C69.4851 24.6634 69.3956 24.4628 69.2166 24.3004C69.041 24.138 68.7708 24.0154 68.4062 23.9325L67.1136 23.6491C66.401 23.4867 65.8741 23.2282 65.5327 22.8736C65.1946 22.5189 65.0256 22.0698 65.0256 21.5263C65.0256 21.0755 65.1515 20.6811 65.4034 20.343C65.6553 20.005 66.0033 19.7415 66.4474 19.5526C66.8916 19.3603 67.4003 19.2642 67.9737 19.2642C68.799 19.2642 69.4486 19.4432 69.9226 19.8011C70.3965 20.1558 70.7098 20.6314 70.8622 21.228ZM76.2104 19.3636V20.5568H72.0392V19.3636H76.2104ZM73.1578 17.5341H74.6444V24.7578C74.6444 25.0462 74.6874 25.2633 74.7736 25.4091C74.8598 25.5516 74.9708 25.6494 75.1067 25.7024C75.2459 25.7521 75.3967 25.777 75.5591 25.777C75.6784 25.777 75.7828 25.7687 75.8723 25.7521C75.9618 25.7356 76.0314 25.7223 76.0811 25.7124L76.3496 26.9403C76.2634 26.9735 76.1408 27.0066 75.9817 27.0398C75.8226 27.0762 75.6238 27.0961 75.3851 27.0994C74.994 27.1061 74.6294 27.0365 74.2914 26.8906C73.9533 26.7448 73.6799 26.5194 73.4711 26.2145C73.2623 25.9096 73.1578 25.5268 73.1578 25.0661V17.5341ZM80.0771 27.169C79.5932 27.169 79.1557 27.0795 78.7646 26.9006C78.3735 26.7183 78.0636 26.4548 77.8349 26.1101C77.6095 25.7654 77.4968 25.3428 77.4968 24.8423C77.4968 24.4115 77.5797 24.0568 77.7454 23.7784C77.9111 23.5 78.1348 23.2796 78.4165 23.1172C78.6983 22.9548 79.0131 22.8321 79.3612 22.7493C79.7092 22.6664 80.0638 22.6035 80.4251 22.5604C80.8825 22.5073 81.2537 22.4643 81.5387 22.4311C81.8237 22.3946 82.0309 22.3366 82.1602 22.2571C82.2894 22.1776 82.354 22.0483 82.354 21.8693V21.8345C82.354 21.4003 82.2314 21.0639 81.9862 20.8253C81.7442 20.5866 81.3829 20.4673 80.9023 20.4673C80.4019 20.4673 80.0075 20.5784 79.7191 20.8004C79.4341 21.0192 79.2369 21.2628 79.1275 21.5312L77.7305 21.2131C77.8962 20.7491 78.1381 20.3745 78.4563 20.0895C78.7778 19.8011 79.1474 19.5923 79.565 19.4631C79.9826 19.3305 80.4218 19.2642 80.8825 19.2642C81.1874 19.2642 81.5105 19.3007 81.8519 19.3736C82.1966 19.4432 82.5181 19.5724 82.8164 19.7614C83.118 19.9503 83.3649 20.2204 83.5572 20.5717C83.7494 20.9197 83.8455 21.3722 83.8455 21.929V27H82.3938V25.956H82.3342C82.238 26.1482 82.0939 26.3371 81.9016 26.5227C81.7094 26.7083 81.4625 26.8625 81.1609 26.9851C80.8593 27.1077 80.498 27.169 80.0771 27.169ZM80.4002 25.9759C80.8112 25.9759 81.1625 25.8946 81.4542 25.7322C81.7492 25.5698 81.9729 25.3577 82.1254 25.0959C82.2811 24.8307 82.359 24.5473 82.359 24.2457V23.2614C82.306 23.3144 82.2032 23.3641 82.0508 23.4105C81.9016 23.4536 81.7309 23.4917 81.5387 23.5249C81.3465 23.5547 81.1592 23.5829 80.9769 23.6094C80.7946 23.6326 80.6422 23.6525 80.5195 23.669C80.2312 23.7055 79.9677 23.7668 79.729 23.853C79.4937 23.9392 79.3048 24.0634 79.1623 24.2259C79.0231 24.3849 78.9535 24.5971 78.9535 24.8622C78.9535 25.2301 79.0894 25.5085 79.3612 25.6974C79.6329 25.883 79.9793 25.9759 80.4002 25.9759ZM89.0272 30.0227C88.4206 30.0227 87.8986 29.9432 87.4611 29.7841C87.0269 29.625 86.6723 29.4145 86.3972 29.1527C86.1221 28.8909 85.9166 28.6042 85.7807 28.2926L87.0584 27.7656C87.1479 27.9115 87.2672 28.0656 87.4164 28.228C87.5688 28.3937 87.7743 28.5346 88.0328 28.6506C88.2947 28.7666 88.6311 28.8246 89.0421 28.8246C89.6055 28.8246 90.0712 28.687 90.4391 28.4119C90.807 28.1402 90.9909 27.706 90.9909 27.1094V25.608H90.8965C90.807 25.7704 90.6777 25.951 90.5087 26.1499C90.343 26.3487 90.1143 26.5211 89.8226 26.6669C89.531 26.8127 89.1515 26.8857 88.6841 26.8857C88.0809 26.8857 87.5373 26.7448 87.0534 26.4631C86.5729 26.178 86.1917 25.7588 85.91 25.2053C85.6316 24.6484 85.4924 23.964 85.4924 23.152C85.4924 22.34 85.6299 21.6439 85.905 21.0639C86.1834 20.4839 86.5646 20.0398 87.0485 19.7315C87.5324 19.42 88.0809 19.2642 88.6941 19.2642C89.168 19.2642 89.5508 19.3438 89.8425 19.5028C90.1342 19.6586 90.3612 19.8409 90.5236 20.0497C90.6893 20.2585 90.8169 20.4425 90.9064 20.6016H91.0158V19.3636H92.4725V27.169C92.4725 27.8253 92.32 28.3639 92.0151 28.7848C91.7102 29.2057 91.2975 29.5173 90.7772 29.7195C90.2601 29.9216 89.6768 30.0227 89.0272 30.0227ZM89.0123 25.6527C89.4398 25.6527 89.8011 25.5533 90.0961 25.3544C90.3944 25.1522 90.6197 24.8639 90.7722 24.4893C90.928 24.1115 91.0059 23.6591 91.0059 23.1321C91.0059 22.6184 90.9296 22.166 90.7772 21.7749C90.6247 21.3838 90.401 21.0788 90.106 20.8601C89.811 20.638 89.4464 20.527 89.0123 20.527C88.5648 20.527 88.1919 20.643 87.8936 20.875C87.5953 21.1037 87.37 21.4152 87.2175 21.8097C87.0684 22.2041 86.9938 22.6449 86.9938 23.1321C86.9938 23.6326 87.07 24.0717 87.2225 24.4496C87.3749 24.8274 87.6003 25.1224 87.8986 25.3345C88.2002 25.5466 88.5714 25.6527 89.0123 25.6527ZM94.4661 27V19.3636H95.9029V20.5767H95.9824C96.1216 20.1657 96.3669 19.8426 96.7182 19.6072C97.0729 19.3686 97.4739 19.2493 97.9213 19.2493C98.0141 19.2493 98.1235 19.2526 98.2495 19.2592C98.3787 19.2659 98.4798 19.2741 98.5527 19.2841V20.706C98.4931 20.6894 98.387 20.6712 98.2346 20.6513C98.0821 20.6281 97.9296 20.6165 97.7772 20.6165C97.4258 20.6165 97.1126 20.6911 96.8375 20.8402C96.5658 20.986 96.3503 21.1899 96.1912 21.4517C96.0321 21.7102 95.9526 22.0052 95.9526 22.3366V27H94.4661ZM101.993 27.169C101.509 27.169 101.072 27.0795 100.681 26.9006C100.289 26.7183 99.9796 26.4548 99.7509 26.1101C99.5255 25.7654 99.4128 25.3428 99.4128 24.8423C99.4128 24.4115 99.4957 24.0568 99.6614 23.7784C99.8271 23.5 100.051 23.2796 100.333 23.1172C100.614 22.9548 100.929 22.8321 101.277 22.7493C101.625 22.6664 101.98 22.6035 102.341 22.5604C102.798 22.5073 103.17 22.4643 103.455 22.4311C103.74 22.3946 103.947 22.3366 104.076 22.2571C104.205 22.1776 104.27 22.0483 104.27 21.8693V21.8345C104.27 21.4003 104.147 21.0639 103.902 20.8253C103.66 20.5866 103.299 20.4673 102.818 20.4673C102.318 20.4673 101.923 20.5784 101.635 20.8004C101.35 21.0192 101.153 21.2628 101.044 21.5312L99.6465 21.2131C99.8122 20.7491 100.054 20.3745 100.372 20.0895C100.694 19.8011 101.063 19.5923 101.481 19.4631C101.899 19.3305 102.338 19.2642 102.798 19.2642C103.103 19.2642 103.427 19.3007 103.768 19.3736C104.113 19.4432 104.434 19.5724 104.732 19.7614C105.034 19.9503 105.281 20.2204 105.473 20.5717C105.665 20.9197 105.762 21.3722 105.762 21.929V27H104.31V25.956H104.25C104.154 26.1482 104.01 26.3371 103.818 26.5227C103.625 26.7083 103.378 26.8625 103.077 26.9851C102.775 27.1077 102.414 27.169 101.993 27.169ZM102.316 25.9759C102.727 25.9759 103.079 25.8946 103.37 25.7322C103.665 25.5698 103.889 25.3577 104.041 25.0959C104.197 24.8307 104.275 24.5473 104.275 24.2457V23.2614C104.222 23.3144 104.119 23.3641 103.967 23.4105C103.818 23.4536 103.647 23.4917 103.455 23.5249C103.262 23.5547 103.075 23.5829 102.893 23.6094C102.711 23.6326 102.558 23.6525 102.436 23.669C102.147 23.7055 101.884 23.7668 101.645 23.853C101.41 23.9392 101.221 24.0634 101.078 24.2259C100.939 24.3849 100.869 24.5971 100.869 24.8622C100.869 25.2301 101.005 25.5085 101.277 25.6974C101.549 25.883 101.895 25.9759 102.316 25.9759ZM107.741 27V19.3636H109.168V20.6065H109.263C109.422 20.1856 109.682 19.8575 110.043 19.6222C110.405 19.3835 110.837 19.2642 111.341 19.2642C111.851 19.2642 112.279 19.3835 112.624 19.6222C112.972 19.8608 113.228 20.1889 113.394 20.6065H113.474C113.656 20.1989 113.946 19.8741 114.344 19.6321C114.741 19.3868 115.215 19.2642 115.766 19.2642C116.458 19.2642 117.023 19.4813 117.461 19.9155C117.902 20.3497 118.122 21.0043 118.122 21.8793V27H116.636V22.0185C116.636 21.5014 116.495 21.1269 116.213 20.8949C115.931 20.6629 115.595 20.5469 115.204 20.5469C114.72 20.5469 114.344 20.696 114.075 20.9943C113.807 21.2893 113.673 21.6688 113.673 22.1328V27H112.191V21.924C112.191 21.5097 112.062 21.1766 111.803 20.9247C111.545 20.6728 111.208 20.5469 110.794 20.5469C110.512 20.5469 110.252 20.6214 110.013 20.7706C109.778 20.9164 109.588 21.1203 109.442 21.3821C109.299 21.6439 109.228 21.9472 109.228 22.2919V27H107.741Z" fill="#061C3D"/>
<defs>
<linearGradient id="paint0_linear_216_1627" x1="11.0772" y1="40.3075" x2="33.0466" y2="-25.6002" gradientUnits="userSpaceOnUse">
<stop stop-color="#FFD600"/>
<stop offset="0.5" stop-color="#FF0100"/>
<stop offset="1" stop-color="#D800B9"/>
</linearGradient>
<linearGradient id="paint1_linear_216_1627" x1="13.7132" y1="30.3216" x2="30.3565" y2="13.6815" gradientUnits="userSpaceOnUse">
<stop stop-color="#FFD600"/>
<stop offset="0.5" stop-color="#FF0100"/>
<stop offset="1" stop-color="#D800B9"/>
</linearGradient>
<linearGradient id="paint2_linear_216_1627" x1="17.7617" y1="26.2774" x2="26.3126" y2="17.7265" gradientUnits="userSpaceOnUse">
<stop stop-color="#FFD600"/>
<stop offset="0.5" stop-color="#FF0100"/>
<stop offset="1" stop-color="#D800B9"/>
</linearGradient>
<linearGradient id="paint3_linear_216_1627" x1="26.3798" y1="17.6595" x2="28.3761" y2="15.6631" gradientUnits="userSpaceOnUse">
<stop stop-color="#FFD600"/>
<stop offset="0.5" stop-color="#FF0100"/>
<stop offset="1" stop-color="#D800B9"/>
</linearGradient>
<clipPath id="clip0_216_1627">
<rect width="20" height="20" fill="white" transform="translate(12 12)"/>
</clipPath>
</defs>
</svg>
