<svg width="112" height="44" viewBox="0 0 112 44" fill="none" xmlns="http://www.w3.org/2000/svg">
<rect width="112" height="44" rx="5" fill="#1DA1F2" fill-opacity="0.08"/>
<g clip-path="url(#clip0_216_1626)">
<path d="M32 15.7988C31.2563 16.125 30.4637 16.3412 29.6375 16.4462C30.4875 15.9388 31.1363 15.1412 31.4412 14.18C30.6488 14.6525 29.7738 14.9863 28.8412 15.1725C28.0887 14.3713 27.0162 13.875 25.8462 13.875C23.5763 13.875 21.7487 15.7175 21.7487 17.9763C21.7487 18.3012 21.7762 18.6137 21.8438 18.9112C18.435 18.745 15.4188 17.1113 13.3925 14.6225C13.0387 15.2363 12.8313 15.9388 12.8313 16.695C12.8313 18.115 13.5625 19.3737 14.6525 20.1025C13.9937 20.09 13.3475 19.8988 12.8 19.5975C12.8 19.61 12.8 19.6262 12.8 19.6425C12.8 21.635 14.2212 23.29 16.085 23.6712C15.7512 23.7625 15.3875 23.8062 15.01 23.8062C14.7475 23.8062 14.4825 23.7913 14.2337 23.7362C14.765 25.36 16.2725 26.5538 18.065 26.5925C16.67 27.6838 14.8988 28.3412 12.9813 28.3412C12.645 28.3412 12.3225 28.3263 12 28.285C13.8162 29.4563 15.9688 30.125 18.29 30.125C25.835 30.125 29.96 23.875 29.96 18.4575C29.96 18.2762 29.9538 18.1013 29.945 17.9275C30.7588 17.35 31.4425 16.6288 32 15.7988Z" fill="#1DA1F2"/>
</g>
<line opacity="0.15" x1="42.5" y1="12" x2="42.5" y2="32" stroke="#061C3D"/>
<path d="M52.6165 18.1406V16.8182H60.4964V18.1406H57.3196V27H55.7884V18.1406H52.6165ZM62.899 27L60.6518 19.3636H62.188L63.6845 24.9716H63.7591L65.2605 19.3636H66.7967L68.2882 24.9467H68.3627L69.8493 19.3636H71.3855L69.1433 27H67.627L66.0758 21.4865H65.9615L64.4103 27H62.899ZM72.7962 27V19.3636H74.2827V27H72.7962ZM73.5469 18.1854C73.2884 18.1854 73.0663 18.0992 72.8807 17.9268C72.6984 17.7512 72.6072 17.5424 72.6072 17.3004C72.6072 17.0552 72.6984 16.8464 72.8807 16.674C73.0663 16.4983 73.2884 16.4105 73.5469 16.4105C73.8054 16.4105 74.0258 16.4983 74.2081 16.674C74.3937 16.8464 74.4865 17.0552 74.4865 17.3004C74.4865 17.5424 74.3937 17.7512 74.2081 17.9268C74.0258 18.0992 73.8054 18.1854 73.5469 18.1854ZM79.8471 19.3636V20.5568H75.676V19.3636H79.8471ZM76.7946 17.5341H78.2811V24.7578C78.2811 25.0462 78.3242 25.2633 78.4103 25.4091C78.4965 25.5516 78.6075 25.6494 78.7434 25.7024C78.8826 25.7521 79.0334 25.777 79.1958 25.777C79.3152 25.777 79.4196 25.7687 79.5091 25.7521C79.5985 25.7356 79.6681 25.7223 79.7179 25.7124L79.9863 26.9403C79.9002 26.9735 79.7775 27.0066 79.6184 27.0398C79.4593 27.0762 79.2605 27.0961 79.0218 27.0994C78.6307 27.1061 78.2662 27.0365 77.9281 26.8906C77.59 26.7448 77.3166 26.5194 77.1078 26.2145C76.899 25.9096 76.7946 25.5268 76.7946 25.0661V17.5341ZM85.0561 19.3636V20.5568H80.8849V19.3636H85.0561ZM82.0036 17.5341H83.4901V24.7578C83.4901 25.0462 83.5331 25.2633 83.6193 25.4091C83.7055 25.5516 83.8165 25.6494 83.9524 25.7024C84.0916 25.7521 84.2424 25.777 84.4048 25.777C84.5241 25.777 84.6286 25.7687 84.718 25.7521C84.8075 25.7356 84.8771 25.7223 84.9268 25.7124L85.1953 26.9403C85.1091 26.9735 84.9865 27.0066 84.8274 27.0398C84.6683 27.0762 84.4695 27.0961 84.2308 27.0994C83.8397 27.1061 83.4751 27.0365 83.1371 26.8906C82.799 26.7448 82.5256 26.5194 82.3168 26.2145C82.108 25.9096 82.0036 25.5268 82.0036 25.0661V17.5341ZM89.9096 27.1541C89.1573 27.1541 88.5093 26.9934 87.9657 26.6719C87.4255 26.3471 87.0079 25.8913 86.7129 25.3047C86.4212 24.7147 86.2754 24.0237 86.2754 23.2315C86.2754 22.4493 86.4212 21.7599 86.7129 21.1634C87.0079 20.5668 87.4189 20.1011 87.9458 19.7663C88.4761 19.4316 89.0959 19.2642 89.8052 19.2642C90.2361 19.2642 90.6537 19.3355 91.0581 19.478C91.4624 19.6205 91.8253 19.8442 92.1468 20.1491C92.4683 20.4541 92.7219 20.8501 92.9075 21.3374C93.0931 21.8213 93.1859 22.4096 93.1859 23.1023V23.6293H87.1156V22.5156H91.7292C91.7292 22.1245 91.6497 21.7782 91.4906 21.4766C91.3315 21.1716 91.1078 20.9313 90.8194 20.7557C90.5344 20.58 90.1996 20.4922 89.8152 20.4922C89.3975 20.4922 89.033 20.5949 88.7214 20.8004C88.4132 21.0026 88.1745 21.2678 88.0055 21.5959C87.8398 21.9207 87.7569 22.2737 87.7569 22.6548V23.5249C87.7569 24.0353 87.8464 24.4695 88.0254 24.8274C88.2077 25.1854 88.4612 25.4588 88.786 25.6477C89.1109 25.8333 89.4904 25.9261 89.9245 25.9261C90.2063 25.9261 90.4631 25.8864 90.6951 25.8068C90.9271 25.724 91.1277 25.6013 91.2967 25.4389C91.4657 25.2765 91.595 25.076 91.6845 24.8374L93.0914 25.0909C92.9788 25.5052 92.7766 25.8681 92.4849 26.1797C92.1966 26.4879 91.8336 26.7282 91.3961 26.9006C90.9619 27.0696 90.4664 27.1541 89.9096 27.1541ZM94.8352 27V19.3636H96.272V20.5767H96.3516C96.4908 20.1657 96.736 19.8426 97.0874 19.6072C97.442 19.3686 97.843 19.2493 98.2905 19.2493C98.3833 19.2493 98.4927 19.2526 98.6186 19.2592C98.7479 19.2659 98.849 19.2741 98.9219 19.2841V20.706C98.8622 20.6894 98.7562 20.6712 98.6037 20.6513C98.4512 20.6281 98.2988 20.6165 98.1463 20.6165C97.795 20.6165 97.4818 20.6911 97.2067 20.8402C96.9349 20.986 96.7195 21.1899 96.5604 21.4517C96.4013 21.7102 96.3217 22.0052 96.3217 22.3366V27H94.8352Z" fill="#061C3D"/>
<defs>
<clipPath id="clip0_216_1626">
<rect width="20" height="20" fill="white" transform="translate(12 12)"/>
</clipPath>
</defs>
</svg>
